<svg xmlns="http://www.w3.org/2000/svg" xmlnsXlink="http://www.w3.org/1999/xlink" width="940" zoomAndPan="magnify" viewBox="0 0 705 591.000005" height="788" preserveAspectRatio="xMidYMid meet" version="1.0"><defs><clipPath id="43801ea48a"><path d="M 203 10.179688 L 502 10.179688 L 502 184 L 203 184 Z M 203 10.179688 " clipRule="nonzero"/></clipPath><clipPath id="bd71591a7d"><path d="M 21.316406 373 L 346 373 L 346 579.96875 L 21.316406 579.96875 Z M 21.316406 373 " clipRule="nonzero"/></clipPath><clipPath id="10619bf8a9"><path d="M 359 373 L 683.941406 373 L 683.941406 579.96875 L 359 579.96875 Z M 359 373 " clipRule="nonzero"/></clipPath></defs><path fill="#008944" d="M 303.082031 192.386719 C 303.082031 192.386719 290.820312 232.445312 241.789062 269.945312 C 241.789062 269.945312 302.824219 330.285156 352.496094 429.070312 C 402.164062 330.285156 463.199219 269.945312 463.199219 269.945312 C 414.171875 232.445312 401.90625 192.386719 401.90625 192.386719 C 391.910156 186.617188 374.636719 183.515625 356.820312 183.085938 L 356.820312 261.292969 C 362.597656 263.125 366.789062 267.78125 366.789062 274.917969 C 366.789062 282.058594 360.386719 289.210938 352.496094 289.210938 C 344.601562 289.210938 338.199219 282.058594 338.199219 274.917969 C 338.199219 267.78125 342.390625 263.128906 348.167969 261.292969 L 348.167969 183.085938 C 330.347656 183.515625 313.074219 186.617188 303.082031 192.386719 Z M 303.082031 192.386719 " fillOpacity="1" fillRule="evenodd"/><g clipPath="url(#43801ea48a)"><path fill="#0059a1" d="M 352.492188 10.179688 L 501.640625 93.28125 L 482.4375 103.984375 L 482.4375 150.382812 C 484.957031 151.246094 486.757812 153.628906 486.757812 156.4375 C 486.757812 158.609375 485.679688 160.527344 484.019531 161.679688 C 484.898438 164.035156 485.394531 166.667969 485.394531 169.449219 C 485.394531 174.996094 483.4375 179.953125 480.363281 183.242188 C 477.296875 179.953125 475.335938 174.996094 475.335938 169.449219 C 475.335938 166.667969 475.828125 164.035156 476.707031 161.679688 C 475.0625 160.527344 473.972656 158.609375 473.972656 156.4375 C 473.972656 153.628906 475.785156 151.246094 478.296875 150.382812 L 478.296875 106.285156 L 418.9375 139.363281 L 418.9375 176.3125 C 388.96875 160.121094 316.023438 160.121094 286.050781 176.3125 L 286.050781 139.363281 C 258.488281 124 230.914062 108.644531 203.351562 93.28125 Z M 352.492188 10.179688 " fillOpacity="1" fillRule="evenodd"/></g><path fill="#0059a1" d="M 352.496094 540.988281 C 332.320312 481.886719 257.617188 327.527344 30.710938 342.890625 C 30.710938 342.890625 239.632812 366.125 352.496094 552.449219 C 465.355469 366.125 674.277344 342.890625 674.277344 342.890625 C 447.371094 327.527344 372.667969 481.886719 352.496094 540.988281 Z M 352.496094 540.988281 " fillOpacity="1" fillRule="evenodd"/><path fill="#88929d" d="M 352.496094 491.382812 C 334.503906 427.800781 272.054688 280.167969 83.269531 303.257812 C 83.269531 303.257812 265.914062 320.492188 352.496094 505.042969 C 439.074219 320.492188 621.71875 303.257812 621.71875 303.257812 C 432.933594 280.167969 370.484375 427.800781 352.496094 491.382812 Z M 352.496094 491.382812 " fillOpacity="1" fillRule="evenodd"/><g clipPath="url(#bd71591a7d)"><path fill="#008944" d="M 345.277344 579.816406 C 345.277344 579.816406 224.660156 373.042969 21.332031 373.042969 L 184.167969 546.214844 C 184.167969 546.214844 251.371094 541.90625 345.277344 579.816406 Z M 345.277344 579.816406 " fillOpacity="1" fillRule="evenodd"/></g><g clipPath="url(#10619bf8a9)"><path fill="#008944" d="M 359.710938 579.816406 C 359.710938 579.816406 480.328125 373.042969 683.65625 373.042969 L 520.820312 546.214844 C 520.820312 546.214844 453.621094 541.90625 359.710938 579.816406 Z M 359.710938 579.816406 " fillOpacity="1" fillRule="evenodd"/></g></svg>